<svg xmlns="http://www.w3.org/2000/svg" viewBox="0 0 22.754166 13.229178"><g transform="translate(-26.524 -.926) scale(.29766)"><rect width="74.667" height="42.667" x="90" y="4" fill="#fff" fill-rule="evenodd" rx="3"/><g fill="none"><path fill="#ff5f00" d="M122.07 12.95h11.746v19.16H122.07z"/><path fill="#eb001b" d="M123.254 22.53c0-3.734 1.71-7.263 4.638-9.58-4.197-3.3-10.054-3.484-14.45-.454-4.395 3.03-6.308 8.568-4.717 13.665 1.59 5.1 6.312 8.57 11.65 8.56 2.728 0 5.376-.91 7.517-2.6-2.93-2.31-4.637-5.84-4.638-9.58z"/><path fill="#f79e1b" d="M147.628 22.53c-.005 4.66-2.667 8.91-6.858 10.947-4.19 2.038-9.176 1.508-12.845-1.366 2.93-2.31 4.638-5.84 4.638-9.58 0-3.73-1.708-7.26-4.638-9.58 3.67-2.87 8.655-3.4 12.845-1.36 4.19 2.04 6.853 6.29 6.858 10.95zm-1.012 10.233v-.972h.27v-.16h-.646v.16h.27v.98zm1.235 0V31.63h-.21l-.21.81-.21-.81H147v1.133h.16v-.89l.215.728h.16l.216-.72v.89z"/><path fill="#222" d="M115.332 40.845v-2.03c.03-.345-.09-.685-.33-.932-.24-.248-.578-.378-.923-.355-.46-.018-.9.2-1.16.575-.23-.378-.65-.6-1.09-.575-.39-.017-.76.16-.98.474v-.407h-.65v3.25h.64v-1.862c-.03-.225.05-.45.2-.615.15-.164.38-.25.6-.23.47 0 .74.304.74.845v1.862h.64v-1.862c-.03-.225.04-.45.2-.615.15-.164.38-.25.6-.23.474 0 .745.304.745.845v1.862zm10.562-3.25h-1.185v-.98h-.65v.98h-.68v.576h.67v1.53c0 .75.27 1.19 1.08 1.19.31 0 .61-.08.88-.23l-.21-.57c-.18.12-.4.18-.61.17-.14.01-.29-.04-.39-.15-.1-.1-.15-.25-.13-.39v-1.53h1.18zm6.026-.067c-.356-.008-.69.172-.88.474v-.407h-.643v3.25h.643v-1.828c0-.54.27-.88.71-.88.15.006.297.03.44.068l.204-.61c-.15-.055-.313-.078-.474-.067zm-9.106.338c-.397-.242-.857-.36-1.32-.338-.813 0-1.32.372-1.32 1.015 0 .542.37.847 1.082.948l.34.04c.37.07.608.21.608.37 0 .24-.27.41-.778.41-.39.01-.77-.11-1.084-.34l-.338.51c.41.27.895.41 1.388.41.948 0 1.455-.44 1.455-1.05 0-.61-.406-.84-1.117-.94l-.338-.03c-.305-.03-.576-.13-.576-.34 0-.2.27-.4.643-.4.35.02.7.11 1.01.27zm9.817 1.354c-.02.457.15.904.47 1.228.33.324.77.493 1.23.465.42.022.83-.11 1.15-.372l-.34-.5c-.24.2-.53.3-.84.31-.56-.04-1-.51-1-1.08s.44-1.04 1-1.08c.31.01.61.11.85.31l.34-.51c-.32-.26-.73-.39-1.15-.37-.45-.05-.9.11-1.22.42-.32.31-.5.76-.46 1.21zm-4.53-1.692c-.95 0-1.59.677-1.59 1.692-.03.452.14.894.45 1.217.32.323.76.496 1.21.476.48.01.95-.145 1.32-.44l-.34-.473c-.27.21-.6.323-.95.333-.5.02-.92-.35-.98-.847h2.4v-.27c0-1.016-.61-1.693-1.52-1.693zm-.03.575c.22-.01.44.07.6.225.16.153.25.366.25.588h-1.76c.07-.458.45-.802.92-.813zm-8.77 1.117v-1.625h-.64v.407c-.25-.32-.64-.497-1.05-.474-.93 0-1.69.758-1.69 1.692 0 .935.76 1.693 1.7 1.693.41.023.8-.154 1.05-.474v.4h.65zm-2.6 0c.04-.55.51-.97 1.06-.947.55.025.99.484.97 1.036-.01.55-.46.99-1.01.99-.28 0-.56-.11-.75-.32-.19-.21-.29-.49-.26-.77zm25.02-1.692c-.35-.008-.69.172-.88.474v-.407h-.64v3.25h.65v-1.828c0-.54.27-.88.71-.88.15.006.3.03.44.068l.21-.61c-.15-.055-.31-.078-.47-.067zm5.22 2.843c.05 0 .1.01.14.04.03 0 .07.04.1.07s.07.07.07.1.03.07.03.14c.01.05-.01.1-.03.14-.03.04-.03.07-.07.1-.03.04-.07.07-.1.07s-.07.04-.14.04c-.05.01-.1 0-.14-.03-.03-.03-.06-.03-.1-.07-.03-.03-.06-.07-.06-.1s-.03-.06-.03-.13c0-.04.01-.09.04-.13.04-.03.04-.07.07-.1.04-.03.07-.06.11-.06.04-.03.09-.04.135-.03zm0 .58c.04.01.08-.01.1-.03.04 0 .07-.03.07-.07l.07-.06c0-.03.03-.07.03-.1s-.01-.07-.03-.1c0-.03-.03-.06-.06-.07l-.07-.06c-.03 0-.07-.03-.1-.03s-.07.01-.1.03c-.03 0-.06.03-.07.07l-.06.07c0 .04-.03.07-.03.1-.004.04.008.08.03.11 0 .04.03.07.07.07l.07.07c.03.03.068.04.1.04zm.04-.4c.04 0 .08.01.11.04.04.04.04.04.04.07s0 .04-.03.07c-.01.02-.04.03-.06.04l.1.1h-.07l-.1-.1h-.034v.1h-.07v-.3zm-.1.07v.07h.1v-.07zm-7.65-1.38V37.6h-.64v.407c-.25-.32-.64-.497-1.05-.474-.93 0-1.69.76-1.69 1.693 0 .935.76 1.693 1.69 1.693.4.02.8-.16 1.05-.48v.4h.64zm-2.6 0c.04-.55.5-.97 1.06-.94.55.03.98.49.97 1.04-.01.55-.46 1-1.01 1-.28.01-.55-.11-.75-.31-.19-.21-.29-.49-.26-.77zm9.14 0v-2.91h-.64V38c-.25-.32-.64-.497-1.05-.474-.93 0-1.69.758-1.69 1.692 0 .935.76 1.693 1.69 1.693.41.03.8-.15 1.05-.47v.41h.65zm-2.61 0c.04-.55.51-.97 1.06-.94.55.03.99.49.97 1.04-.01.55-.46 1-1.01 1-.28.01-.55-.11-.75-.31-.19-.21-.29-.49-.26-.77z"/></g></g></svg>