<svg xmlns="http://www.w3.org/2000/svg" viewBox="0 0 24.225 14.700001"><g fill-rule="evenodd" transform="translate(-.488 -.19) scale(.29766)"><rect width="74.667" height="42.667" x="5" y="4" fill="#fff" rx="3"/><path fill="#1b5ba6" d="M69.358 34.423h-1.434c-.755 0-1.51-.005-2.265.007-.23.004-.32-.08-.37-.303-.13-.674-.28-1.343-.4-2.018-.04-.24-.136-.31-.358-.31-1.68.01-3.36.01-5.04 0-.24 0-.33.1-.4.31-.23.69-.47 1.38-.727 2.064-.04.102-.174.234-.266.235-1.44.014-2.88.01-4.373.01l.905-2.24c1.842-4.555 3.684-9.107 5.524-13.66.476-1.18 1.01-1.55 2.25-1.55 1.05-.003 2.095.003 3.143-.004.21 0 .305.05.353.29.75 3.75 1.513 7.496 2.272 11.243l1.11 5.536c.02.104.03.207.058.375zm-5.24-6.174l-1.3-6.46-.088-.01-2.262 6.46h3.65zM15.32 17.45c.03-.162.054-.286.08-.41.002-.01.013-.018.044-.058.106-.004.24-.016.37-.016 2.312 0 4.622 0 6.933.002 1.143.002 1.89.625 2.108 1.798.592 3.2 1.17 6.405 1.753 9.607.022.12.055.24.107.464l.702-1.83c1.245-3.26 2.49-6.518 3.732-9.777.06-.163.12-.27.33-.267 1.38.012 2.77.01 4.15.01.04 0 .09.012.17.024-.13.335-.25.655-.38.973-2.18 5.39-4.366 10.78-6.54 16.173-.093.23-.207.313-.447.31-1.32-.01-2.638-.013-3.956 0-.256.003-.37-.068-.435-.337-1.124-4.532-2.268-9.06-3.38-13.594-.2-.824-.58-1.443-1.36-1.724-1.2-.432-2.41-.833-3.613-1.245-.116-.04-.236-.064-.38-.103zm39.414-.01l-.757 3.657c-.985-.444-1.988-.734-3.044-.8-.782-.048-1.56-.04-2.275.347-.196.106-.383.252-.534.418-.415.458-.44 1.08.01 1.498.424.39.916.708 1.403 1.015.74.465 1.52.865 2.25 1.343 3.318 2.167 2.317 6.298.325 7.965-1.18.986-2.535 1.5-4.006 1.705-2.142.298-4.244.076-6.29-.657-.105-.03-.205-.08-.33-.14l.79-3.81c.176.09.334.16.492.24 1.417.684 2.902.986 4.463.838.57-.054 1.11-.21 1.58-.573.74-.575.82-1.513.11-2.124-.48-.42-1.07-.724-1.61-1.07-.8-.52-1.66-.954-2.39-1.555-2.51-2.054-1.734-5.23-.246-6.813 1.14-1.21 2.568-1.82 4.143-2.1 1.96-.35 3.88-.13 5.754.546.05.02.1.05.178.09zm-12.662-.444L38.476 34.42h-4.358c1.2-5.81 2.4-11.607 3.604-17.424h4.35z"/></g></svg>